<?xml version="1.0" encoding="UTF-8"?>
<svg id="Layer_1" xmlns="http://www.w3.org/2000/svg" version="1.1" viewBox="0 0 22.9 22.2">
  <!-- Generator: Adobe Illustrator 29.2.1, SVG Export Plug-In . SVG Version: 2.1.0 Build 116)  -->
  <defs>
    <style>
      .st0 {
        fill: none;
        stroke: #000;
        stroke-linecap: round;
        stroke-linejoin: round;
        stroke-width: 1.5px;
      }
    </style>
  </defs>
  <g id="SVGRepo_iconCarrier">
    <path class="st0" d="M16.8,13h1.5c1.1,0,2-.9,2-2V4c0-1.1-.9-2-2-2h-7c-1.1,0-2,.9-2,2v1.5M4.3,9h7c1.1,0,2,.9,2,2v7c0,1.1-.9,2-2,2h-7c-1.1,0-2-.9-2-2v-7c0-1.1.9-2,2-2Z"/>
  </g>
  <g id="SVGRepo_iconCarrier1" data-name="SVGRepo_iconCarrier">
    <path class="st0" d="M55.8,13h1.5c1.1,0,2-.9,2-2V4c0-1.1-.9-2-2-2h-7c-1.1,0-2,.9-2,2v1.5M43.3,9h7c1.1,0,2,.9,2,2v7c0,1.1-.9,2-2,2h-7c-1.1,0-2-.9-2-2v-7c0-1.1.9-2,2-2Z"/>
  </g>
</svg>